{"glyphs":{":":{"x_min":0,"x_max":367,"ha":367,"o":"m 280 390 q 280 352 252 323 q 223 295 184 295 q 145 295 116 323 q 87 351 87 390 q 87 429 116 458 q 145 486 184 486 q 223 486 252 458 q 280 429 280 390 z m 280 81 q 280 42 252 14 q 223 -14 184 -14 q 145 -14 116 14 q 87 42 87 81 q 87 120 116 149 q 145 177 184 177 q 223 177 252 148 q 280 120 280 81 z"},"$":{"x_min":0,"x_max":641,"ha":641,"o":"m 589 201 q 589 110 520 54 q 451 -2 349 -9 l 349 -146 l 300 -146 l 300 -9 q 197 -7 125 38 q 52 83 52 143 q 52 178 73 202 q 94 226 131 226 q 169 226 192 205 q 215 185 215 150 q 215 125 207 100 q 198 75 193 61 q 206 54 237 43 q 267 33 300 33 l 300 252 q 293 253 287 254 q 281 254 272 255 q 179 264 125 312 q 70 360 70 437 q 70 471 83 504 q 96 537 122 565 q 149 594 193 614 q 237 634 300 638 l 300 744 l 349 744 l 349 638 q 449 634 511 596 q 573 558 573 502 q 573 469 552 446 q 532 423 497 423 q 459 423 438 442 q 417 462 417 495 q 417 518 424 540 q 432 562 438 580 q 424 586 401 591 q 377 595 349 596 l 349 396 q 356 396 367 394 q 378 392 387 391 q 487 376 538 328 q 589 279 589 201 z m 300 401 l 300 596 q 245 590 215 563 q 186 537 186 499 q 186 456 210 433 q 234 411 280 404 q 287 403 291 402 q 294 401 300 401 z m 475 143 q 475 184 451 209 q 427 234 375 244 q 370 245 363 246 q 355 247 349 248 l 349 33 q 416 39 445 70 q 475 100 475 143 z"},"?":{"x_min":0,"x_max":548,"ha":548,"o":"m 496 506 q 496 408 429 347 q 361 286 249 277 l 246 211 l 203 211 l 203 401 q 273 407 313 446 q 354 484 354 551 q 354 604 325 636 q 297 668 250 668 q 230 668 214 664 q 199 660 184 651 q 189 636 196 611 q 202 586 202 565 q 202 531 180 512 q 158 494 118 494 q 81 494 60 517 q 39 541 39 575 q 39 631 103 670 q 167 709 257 709 q 364 709 430 653 q 496 598 496 506 z m 320 76 q 320 39 292 12 q 264 -14 227 -14 q 188 -14 160 12 q 132 39 132 76 q 132 113 160 140 q 188 167 227 167 q 264 167 292 140 q 320 113 320 76 z"},"<":{"x_min":0,"x_max":703,"ha":703,"o":"m 590 3 l 102 247 l 102 315 l 590 559 l 590 467 l 207 281 l 590 95 z"},"'":{"x_min":0,"x_max":269,"ha":269,"o":"m 215 668 q 215 642 192 564 q 168 487 151 402 l 118 402 q 101 487 77 564 q 54 642 54 668 q 54 700 75 723 q 96 747 135 747 q 173 747 194 723 q 215 700 215 668 z"},"=":{"x_min":0,"x_max":703,"ha":703,"o":"m 613 342 l 90 342 l 90 421 l 613 421 z m 613 140 l 90 140 l 90 219 l 613 219 z"},"a":{"x_min":0,"x_max":596,"ha":596,"o":"m 586 10 q 565 1 536 -7 q 506 -15 474 -15 q 414 -15 385 3 q 357 21 347 54 l 344 54 q 327 38 312 26 q 296 14 279 6 q 256 -5 235 -10 q 213 -15 175 -15 q 119 -15 79 18 q 39 52 39 107 q 39 139 47 161 q 56 183 72 200 q 87 216 106 226 q 125 236 148 245 q 192 261 254 279 q 315 296 344 310 l 344 356 q 344 369 342 389 q 340 409 333 422 q 327 438 312 449 q 297 459 273 459 q 252 459 238 453 q 223 447 214 441 q 216 431 223 411 q 229 391 229 373 q 229 364 225 352 q 221 339 212 332 q 201 322 187 317 q 173 312 145 312 q 104 312 83 331 q 62 351 62 383 q 62 410 83 432 q 105 454 136 468 q 167 482 207 490 q 247 499 281 499 q 329 499 368 493 q 408 487 439 470 q 470 453 488 420 q 505 388 505 335 q 505 280 503 205 q 501 129 501 105 q 501 83 508 70 q 514 58 528 51 q 536 47 554 47 q 572 46 586 46 z m 344 265 q 316 255 290 243 q 263 231 246 218 q 228 205 217 183 q 207 162 207 133 q 207 95 224 78 q 242 61 267 61 q 294 61 311 72 q 329 83 342 99 z"},"L":{"x_min":0,"x_max":686,"ha":686,"o":"m 686 222 l 672 0 l 34 0 l 34 38 q 51 40 74 43 q 97 46 104 49 q 122 56 128 68 q 135 80 135 99 l 135 588 q 135 605 130 617 q 125 628 104 638 q 89 645 68 649 q 46 653 34 655 l 34 693 l 414 693 l 414 655 q 398 653 377 651 q 356 648 340 643 q 321 637 315 623 q 309 610 309 593 l 309 137 q 309 105 313 86 q 317 68 330 59 q 343 50 365 47 q 388 44 428 44 q 467 44 504 49 q 541 54 557 69 q 582 94 608 139 q 634 185 650 222 z"},"3":{"x_min":0,"x_max":625,"ha":625,"o":"m 506 164 q 535 145 555 112 q 574 80 574 32 q 574 -59 487 -120 q 399 -180 262 -180 q 163 -180 94 -138 q 25 -96 25 -34 q 25 0 48 24 q 70 48 107 48 q 146 48 170 28 q 195 7 195 -28 q 195 -52 186 -81 q 178 -111 173 -125 q 184 -130 201 -133 q 218 -135 241 -135 q 269 -135 296 -126 q 323 -117 343 -96 q 364 -74 376 -44 q 387 -15 387 34 q 387 62 382 87 q 377 112 363 130 q 350 149 326 159 q 302 170 266 170 l 204 170 l 204 229 l 248 229 q 309 229 337 265 q 364 302 364 376 q 364 437 338 467 q 311 497 261 497 q 242 497 228 494 q 213 492 199 486 q 204 470 212 440 q 220 410 220 389 q 220 354 196 334 q 172 313 133 313 q 97 313 75 337 q 53 361 53 396 q 53 456 123 499 q 193 542 299 542 q 373 542 421 524 q 469 507 497 482 q 524 458 534 430 q 545 402 545 379 q 545 358 536 331 q 527 304 509 283 q 488 258 453 240 q 418 222 372 212 l 372 205 q 404 203 441 193 q 478 183 506 164 z"},";":{"x_min":0,"x_max":367,"ha":367,"o":"m 280 390 q 280 352 252 323 q 223 295 184 295 q 145 295 116 323 q 87 351 87 390 q 87 429 116 458 q 145 486 184 486 q 223 486 252 458 q 280 429 280 390 z m 283 26 q 283 -34 233 -96 q 183 -158 113 -190 l 92 -155 q 116 -143 137 -128 q 158 -113 175 -94 q 192 -73 202 -52 q 212 -31 214 0 l 187 0 q 137 0 112 22 q 86 45 86 84 q 86 116 111 141 q 135 166 171 166 q 226 166 254 129 q 283 91 283 26 z"},"J":{"x_min":0,"x_max":595,"ha":595,"o":"m 569 655 q 550 652 536 650 q 522 647 505 643 q 485 638 480 624 q 474 610 474 593 l 474 211 q 474 158 453 114 q 432 70 395 41 q 357 11 311 -4 q 264 -19 211 -19 q 120 -19 64 25 q 8 69 8 146 q 8 191 34 221 q 60 251 104 251 q 147 251 172 226 q 197 201 197 165 q 197 133 176 107 q 154 80 126 58 l 126 51 q 130 42 145 35 q 160 28 175 28 q 233 28 267 70 q 300 112 300 197 l 300 588 q 300 605 295 617 q 290 629 269 638 q 254 644 234 648 q 213 653 199 655 l 199 693 l 569 693 z"},"V":{"x_min":0,"x_max":762,"ha":762,"o":"m 782 654 q 766 652 751 648 q 737 644 721 634 q 700 622 689 608 q 677 594 666 570 q 651 536 624 471 q 596 407 561 324 q 530 250 493 162 q 457 73 424 -8 l 326 -8 q 257 160 187 333 q 116 505 87 573 q 76 597 65 610 q 55 622 32 635 q 15 645 2 648 q -10 652 -31 655 l -31 693 l 344 693 l 344 656 q 292 649 273 642 q 254 635 254 625 q 254 619 256 613 q 257 607 261 597 q 276 554 317 456 q 358 359 439 159 q 488 281 521 365 q 554 449 579 513 q 591 544 599 572 q 607 599 607 612 q 607 628 584 638 q 562 649 501 654 l 501 693 l 782 693 z"},"\"":{"x_min":0,"x_max":510,"ha":510,"o":"m 451 668 q 451 642 427 564 q 404 487 387 402 l 354 402 q 336 487 313 564 q 290 642 290 668 q 290 700 311 723 q 332 747 371 747 q 409 747 430 723 q 451 700 451 668 z m 220 668 q 220 642 197 564 q 173 487 156 402 l 123 402 q 105 487 82 564 q 59 642 59 668 q 59 700 80 723 q 101 747 140 747 q 178 747 199 723 q 220 700 220 668 z"},"7":{"x_min":0,"x_max":554,"ha":554,"o":"m 559 468 l 203 -180 l 130 -180 l 459 395 l 235 395 q 193 395 169 394 q 145 394 125 384 q 109 377 97 350 q 86 324 79 285 l 43 285 l 43 526 l 559 526 z"},"S":{"x_min":0,"x_max":649,"ha":649,"o":"m 324 -19 q 261 -19 206 -3 q 151 13 113 34 l 79 0 l 38 0 l 31 250 l 73 250 q 87 215 109 175 q 131 136 160 104 q 190 72 227 51 q 264 31 313 31 q 379 31 415 63 q 450 96 450 145 q 450 186 420 213 q 390 241 327 261 q 286 274 252 285 q 217 296 187 308 q 117 336 83 388 q 49 439 49 503 q 49 544 67 581 q 84 619 118 648 q 150 676 201 694 q 251 711 310 711 q 368 711 418 696 q 468 680 497 664 l 527 693 l 569 693 l 573 457 l 531 457 q 517 495 497 534 q 477 574 455 601 q 431 629 400 646 q 369 663 327 663 q 274 663 240 633 q 207 603 207 559 q 207 518 236 491 q 265 465 327 445 q 363 433 400 420 q 438 408 467 397 q 538 370 575 322 q 612 273 612 202 q 612 157 591 115 q 570 73 534 45 q 495 15 444 -2 q 393 -19 324 -19 z"},"}":{"x_min":0,"x_max":500,"ha":500,"o":"m 465 257 q 433 255 404 250 q 375 246 355 233 q 335 220 326 199 q 316 177 316 142 q 316 115 319 84 q 322 52 322 23 q 322 -38 302 -75 q 281 -112 243 -131 q 205 -151 152 -157 q 98 -163 34 -163 l 34 -120 q 57 -119 80 -115 q 104 -110 120 -100 q 138 -88 149 -66 q 160 -44 160 -8 l 160 84 q 160 137 174 171 q 188 205 213 225 q 236 245 269 257 q 302 269 337 275 l 337 312 q 300 319 269 331 q 237 343 213 362 q 188 383 174 418 q 160 453 160 503 l 160 596 q 160 632 149 654 q 138 676 120 687 q 99 700 80 703 q 60 706 34 708 l 34 750 q 96 750 151 745 q 206 739 243 719 q 282 698 302 662 q 322 625 322 565 q 322 536 319 505 q 316 474 316 446 q 316 407 326 388 q 335 368 355 355 q 374 343 404 338 q 433 333 465 331 z"},"Z":{"x_min":0,"x_max":689,"ha":689,"o":"m 682 234 l 659 0 l 8 0 l 8 30 l 456 648 l 304 648 q 258 648 237 645 q 217 643 199 634 q 178 626 152 593 q 127 560 84 481 l 45 481 l 66 693 l 669 693 l 669 663 l 221 45 l 396 45 q 478 45 507 52 q 537 58 550 75 q 578 109 602 149 q 625 189 646 234 z"},"x":{"x_min":0,"x_max":588,"ha":588,"o":"m 585 0 l 280 0 l 280 36 q 304 37 320 40 q 336 42 336 51 q 336 55 332 63 q 328 71 321 82 q 312 97 289 129 q 267 162 247 190 q 218 157 199 134 q 180 110 159 83 q 152 75 149 67 q 146 60 146 59 q 146 47 162 42 q 178 36 200 36 l 200 0 l 1 0 l 1 36 q 41 44 65 62 q 88 80 97 90 q 132 128 157 153 q 182 178 223 224 q 195 262 156 318 q 116 374 90 409 q 77 427 58 436 q 39 446 8 449 l 8 484 l 307 484 l 307 449 q 291 449 275 447 q 259 445 259 440 q 259 436 262 430 q 264 424 268 418 q 277 402 297 372 q 317 342 340 309 q 362 335 377 353 q 392 370 416 401 q 424 413 427 418 q 429 424 429 426 q 429 434 418 441 q 408 447 377 449 l 377 484 l 571 484 l 571 449 q 547 445 525 433 q 502 420 478 395 q 440 355 423 337 q 405 318 365 276 q 388 244 430 184 q 473 123 503 82 q 517 63 533 51 q 549 40 585 36 z"},")":{"x_min":0,"x_max":447,"ha":447,"o":"m 391 294 q 391 184 360 103 q 330 21 279 -34 q 229 -89 164 -120 q 100 -151 33 -160 l 33 -116 q 125 -99 175 3 q 224 104 224 294 q 224 483 175 585 q 125 687 33 704 l 33 748 q 100 739 164 708 q 229 677 279 622 q 330 566 360 485 q 391 404 391 294 z"},"&":{"x_min":0,"x_max":799,"ha":799,"o":"m 804 0 l 517 0 q 505 13 486 34 q 468 56 455 72 q 403 24 351 4 q 300 -17 242 -17 q 150 -17 92 32 q 34 82 34 161 q 34 200 44 229 q 55 257 78 285 q 101 312 134 334 q 167 356 208 375 q 165 431 147 470 q 130 509 130 550 q 130 620 188 666 q 247 711 329 711 q 405 711 452 675 q 500 639 500 580 q 500 528 471 487 q 443 446 377 407 q 430 339 459 304 q 488 270 537 214 q 567 259 583 297 q 598 335 598 361 q 598 376 576 385 q 555 394 515 402 l 515 439 l 788 439 l 788 402 q 744 398 722 391 q 701 384 681 363 q 672 354 659 332 q 646 310 634 290 q 620 265 604 237 q 588 210 565 180 q 610 127 639 101 q 668 75 687 65 q 708 54 740 48 q 772 41 804 39 z m 425 572 q 425 615 405 640 q 384 665 351 665 q 319 665 299 644 q 280 624 280 591 q 280 563 298 527 q 316 491 354 440 q 391 466 408 500 q 425 535 425 572 z m 429 104 q 388 153 333 219 q 279 284 232 343 q 206 318 195 284 q 183 250 183 216 q 183 151 225 110 q 266 69 330 69 q 360 69 382 76 q 404 84 429 104 z"},"_":{"x_min":0,"x_max":703,"ha":703,"o":"m 706 -147 l -2 -147 l -2 -88 l 706 -88 z"},"v":{"x_min":0,"x_max":567,"ha":567,"o":"m 585 449 q 563 445 542 432 q 521 419 508 391 q 474 320 441 247 q 408 175 376 107 q 366 86 354 54 q 341 22 333 -4 l 243 -4 q 187 126 147 212 q 107 298 63 396 q 53 419 31 433 q 9 446 -13 449 l -13 484 l 288 484 l 288 449 q 271 448 249 441 q 226 435 226 424 q 226 421 228 415 q 230 409 233 402 q 249 365 280 295 q 312 225 347 148 q 371 201 393 252 q 416 303 448 382 q 453 394 453 401 q 454 409 454 411 q 454 420 446 427 q 437 433 425 438 q 413 443 402 445 q 391 448 383 449 l 383 484 l 585 484 z"},"O":{"x_min":0,"x_max":820,"ha":820,"o":"m 674 616 q 725 569 755 502 q 785 436 785 351 q 785 275 760 207 q 734 139 687 89 q 636 38 568 10 q 500 -19 407 -19 q 331 -19 264 6 q 196 31 145 78 q 94 125 64 191 q 35 257 35 339 q 35 424 64 493 q 93 562 144 611 q 194 660 263 686 q 332 712 410 712 q 488 712 556 687 q 624 661 674 616 z m 548 120 q 570 165 580 221 q 590 277 590 348 q 590 408 581 465 q 573 521 552 566 q 531 610 497 637 q 462 664 410 664 q 322 664 276 580 q 230 497 230 344 q 230 279 240 221 q 250 164 271 121 q 293 77 327 53 q 361 29 410 29 q 458 29 493 53 q 528 78 548 120 z"},"(":{"x_min":0,"x_max":447,"ha":447,"o":"m 414 -160 q 347 -151 283 -121 q 219 -90 168 -34 q 118 21 87 103 q 56 184 56 294 q 56 404 87 485 q 118 566 168 622 q 219 677 283 708 q 347 739 414 748 l 414 704 q 322 687 272 585 q 223 483 223 294 q 223 104 272 3 q 322 -99 414 -116 z"},"C":{"x_min":0,"x_max":715,"ha":715,"o":"m 397 -19 q 321 -19 254 6 q 188 31 139 78 q 90 124 62 191 q 35 259 35 340 q 35 420 63 489 q 91 558 142 608 q 191 657 261 684 q 331 711 411 711 q 468 711 516 698 q 563 684 596 666 l 626 693 l 668 693 l 673 440 l 630 440 q 593 556 542 610 q 491 664 417 664 q 325 664 277 583 q 229 502 229 356 q 229 274 246 216 q 262 157 289 122 q 317 84 355 67 q 394 50 441 50 q 509 50 563 87 q 616 124 660 199 l 702 174 q 681 131 654 97 q 627 63 592 39 q 554 12 507 -3 q 460 -19 397 -19 z"},"W":{"x_min":0,"x_max":1126,"ha":1126,"o":"m 1145 654 q 1130 652 1115 647 q 1100 642 1085 634 q 1062 622 1053 606 q 1043 591 1036 570 q 1009 496 953 332 q 897 168 836 -8 l 738 -8 l 555 507 l 390 -8 l 292 -8 q 210 229 167 358 q 124 486 94 573 q 84 599 73 611 q 61 623 42 635 q 29 644 14 648 q 0 652 -20 655 l -20 693 l 350 693 l 350 656 q 317 652 301 648 q 285 645 275 641 q 267 637 265 632 q 263 628 263 625 q 263 618 264 611 q 266 605 268 597 q 280 559 315 452 q 351 346 403 188 l 561 693 l 665 693 l 848 172 q 888 298 912 377 q 937 457 953 514 q 963 548 969 572 q 975 595 975 612 q 975 623 965 630 q 956 637 939 643 q 926 647 904 650 q 882 652 866 654 l 866 693 l 1145 693 z"},"A":{"x_min":0,"x_max":758,"ha":758,"o":"m 786 0 l 408 0 l 408 38 q 435 40 470 48 q 506 55 506 66 q 506 70 505 75 q 504 80 501 88 l 442 232 l 203 232 q 194 212 184 185 q 174 158 167 137 q 158 110 156 98 q 154 85 154 81 q 154 65 178 54 q 202 43 257 38 l 257 0 l -27 0 l -27 38 q -11 39 9 43 q 29 47 41 55 q 61 66 75 83 q 89 101 98 124 q 155 261 212 399 q 269 537 337 703 l 435 703 q 531 467 585 331 q 639 194 677 104 q 684 89 693 77 q 703 65 721 55 q 735 47 753 43 q 771 39 786 38 z m 422 280 l 321 531 l 222 280 z"},"f":{"x_min":0,"x_max":393,"ha":393,"o":"m 490 673 q 490 661 486 646 q 482 632 474 622 q 463 609 451 603 q 438 597 413 597 q 374 597 352 624 q 330 650 305 713 q 286 705 273 670 q 261 635 261 521 l 261 482 l 396 482 l 396 430 l 262 430 l 262 93 q 262 74 271 64 q 280 53 294 48 q 306 44 325 41 q 344 37 359 36 l 359 0 l 29 0 l 29 36 q 42 37 54 38 q 66 40 75 43 q 91 49 96 60 q 102 71 102 89 l 102 430 l 3 430 l 3 482 l 102 482 q 102 535 117 584 q 132 633 164 671 q 195 709 245 733 q 295 756 363 756 q 424 756 457 733 q 490 710 490 673 z"},"Q":{"x_min":0,"x_max":820,"ha":820,"o":"m 674 616 q 725 569 755 502 q 785 436 785 351 q 785 230 725 139 q 665 48 554 8 q 556 -50 589 -93 q 623 -135 669 -135 q 697 -135 719 -132 q 740 -128 757 -124 l 757 -167 q 729 -179 674 -191 q 620 -203 560 -203 q 478 -203 425 -154 q 372 -104 365 -17 q 296 -10 236 18 q 177 45 131 91 q 87 137 61 200 q 35 263 35 339 q 35 424 64 493 q 93 562 144 611 q 194 660 263 686 q 332 712 410 712 q 488 712 556 687 q 624 661 674 616 z m 548 120 q 570 165 580 221 q 590 277 590 348 q 590 408 581 465 q 573 521 552 566 q 531 610 497 637 q 462 664 410 664 q 322 664 276 580 q 230 497 230 344 q 230 279 240 221 q 250 164 271 121 q 293 77 327 53 q 361 29 410 29 q 458 29 493 53 q 528 78 548 120 z"},"w":{"x_min":0,"x_max":863,"ha":863,"o":"m 870 449 q 848 445 829 434 q 810 422 796 391 q 762 308 742 256 q 721 205 684 108 q 676 88 665 53 q 654 18 648 -4 l 553 -4 l 430 328 l 314 -4 l 220 -4 q 171 129 143 202 q 114 276 67 396 q 58 419 37 433 q 16 446 -7 449 l -7 484 l 293 484 l 293 449 q 276 447 253 441 q 230 435 230 424 q 230 419 232 415 q 233 412 236 402 q 249 364 272 303 q 295 243 326 163 l 434 484 l 531 484 l 654 152 q 683 228 698 271 q 713 314 737 382 q 740 393 741 401 q 742 409 741 411 q 741 420 732 427 q 724 434 711 438 q 699 443 688 445 q 676 448 668 449 l 668 484 l 870 484 z"},"-":{"x_min":0,"x_max":379,"ha":379,"o":"m 337 212 l 42 212 l 42 320 l 337 320 z"},"E":{"x_min":0,"x_max":721,"ha":721,"o":"m 648 516 l 611 516 q 597 556 562 596 q 527 637 493 644 q 479 647 452 648 q 426 649 409 649 l 309 649 l 309 381 l 380 381 q 407 381 429 388 q 451 394 469 412 q 480 423 491 452 q 503 480 506 501 l 543 501 l 543 212 l 506 212 q 503 232 491 263 q 479 294 469 306 q 453 324 431 330 q 409 337 380 337 l 309 337 l 309 137 q 309 106 313 88 q 318 69 331 60 q 343 50 364 47 q 385 44 422 44 q 439 44 463 45 q 487 45 505 48 q 525 50 543 55 q 561 60 570 69 q 593 93 623 142 q 652 191 661 216 l 697 216 l 684 0 l 34 0 l 34 38 q 47 39 71 42 q 94 45 104 49 q 123 57 129 69 q 135 81 135 99 l 135 588 q 135 605 130 617 q 125 628 104 638 q 91 644 68 648 q 45 653 34 655 l 34 693 l 648 693 z"},"s":{"x_min":0,"x_max":513,"ha":513,"o":"m 254 -17 q 207 -17 162 -3 q 117 11 92 27 l 77 -6 l 39 -6 l 33 176 l 68 176 q 76 154 93 126 q 110 99 132 77 q 155 55 184 40 q 214 24 248 24 q 292 24 314 42 q 335 59 335 95 q 335 115 326 127 q 316 140 299 149 q 280 159 257 166 q 234 173 201 183 q 168 192 144 202 q 121 212 95 234 q 73 253 60 280 q 47 307 47 344 q 47 413 105 455 q 163 498 256 498 q 301 498 338 489 q 375 479 401 469 l 411 498 l 448 498 l 456 331 l 421 331 q 404 382 363 419 q 321 456 273 456 q 236 456 214 440 q 193 424 193 396 q 193 359 224 343 q 256 326 312 312 q 400 289 440 250 q 481 211 481 151 q 481 71 418 27 q 355 -17 254 -17 z"},">":{"x_min":0,"x_max":703,"ha":703,"o":"m 601 247 l 113 3 l 113 95 l 497 281 l 113 467 l 113 559 l 601 315 z"},"l":{"x_min":0,"x_max":344,"ha":344,"o":"m 326 0 l 20 0 l 20 36 q 32 37 44 38 q 56 40 65 43 q 81 49 87 60 q 92 71 92 89 l 92 630 q 92 648 85 664 q 77 680 64 688 q 55 695 35 701 q 15 707 0 708 l 0 743 l 246 756 l 253 748 l 253 95 q 253 77 259 66 q 266 55 280 48 q 290 44 300 41 q 311 37 326 36 z"},"8":{"x_min":0,"x_max":676,"ha":676,"o":"m 625 194 q 625 104 545 43 q 465 -18 327 -18 q 203 -18 127 34 q 51 86 51 168 q 51 231 92 272 q 132 312 220 333 q 150 365 114 413 q 78 461 78 521 q 78 603 156 658 q 234 713 349 713 q 460 713 529 664 q 598 615 598 543 q 598 487 561 449 q 523 412 448 389 q 542 355 584 306 q 625 257 625 194 z m 435 544 q 435 601 410 635 q 385 670 340 670 q 297 670 270 641 q 242 611 242 564 q 242 532 254 510 q 266 489 289 473 q 309 458 346 439 q 384 421 413 407 q 424 431 429 467 q 435 502 435 544 z m 461 145 q 461 179 447 201 q 432 224 405 242 q 377 259 335 278 q 293 296 255 315 q 239 296 227 258 q 214 220 214 178 q 214 106 249 65 q 284 25 340 25 q 397 25 429 58 q 461 91 461 145 z"},"\\":{"x_min":0,"x_max":472,"ha":472,"o":"m 458 -207 l 371 -207 l 33 744 l 122 744 z"},"e":{"x_min":0,"x_max":572,"ha":572,"o":"m 553 117 q 536 89 512 64 q 488 40 457 22 q 424 3 391 -6 q 357 -16 314 -16 q 242 -16 189 5 q 137 25 103 60 q 68 95 52 142 q 35 189 35 244 q 35 294 53 340 q 71 385 105 421 q 138 456 189 477 q 239 499 302 499 q 370 499 414 482 q 458 465 487 436 q 515 408 527 370 q 540 333 540 291 l 540 259 l 210 259 q 210 159 249 107 q 287 55 371 55 q 417 55 454 80 q 490 105 516 144 z m 367 302 q 367 332 364 362 q 361 393 354 413 q 345 436 331 447 q 316 459 294 459 q 257 459 234 421 q 212 383 210 300 z"},"b":{"x_min":0,"x_max":646,"ha":646,"o":"m 611 239 q 611 129 538 57 q 466 -16 354 -16 q 312 -16 281 -10 q 250 -3 228 5 q 206 15 192 24 q 179 33 171 39 l 101 -25 l 72 -14 q 75 22 76 64 q 78 105 78 176 l 78 633 q 78 652 71 668 q 63 684 50 692 q 41 698 23 702 q 5 707 -10 708 l -10 743 l 231 756 l 239 748 l 239 431 l 242 431 q 277 465 315 481 q 353 498 390 498 q 493 498 552 428 q 611 358 611 239 z m 436 233 q 436 270 430 304 q 424 339 411 365 q 398 392 376 407 q 355 423 323 423 q 293 423 274 414 q 254 404 239 385 l 239 101 q 242 91 250 75 q 258 59 266 50 q 278 38 291 31 q 304 24 328 24 q 378 24 407 79 q 436 133 436 233 z"},"%":{"x_min":0,"x_max":879,"ha":879,"o":"m 425 530 q 425 449 370 398 q 315 348 235 348 q 154 348 99 398 q 44 449 44 530 q 44 612 99 662 q 154 713 234 713 q 315 713 370 662 q 425 612 425 530 z m 295 529 q 295 597 282 637 q 269 677 234 677 q 202 677 188 639 q 174 602 174 534 q 174 464 187 424 q 200 383 236 383 q 267 383 281 421 q 295 459 295 529 z m 835 166 q 835 84 780 33 q 725 -17 645 -17 q 564 -17 509 33 q 455 84 455 166 q 455 247 509 298 q 564 348 645 348 q 725 348 780 298 q 835 247 835 166 z m 706 165 q 706 232 692 272 q 679 312 644 312 q 612 312 598 275 q 584 237 584 169 q 584 99 597 59 q 610 19 646 19 q 677 19 691 56 q 706 94 706 165 z m 769 697 l 191 0 l 111 0 l 688 697 z"},"m":{"x_min":0,"x_max":1016,"ha":1016,"o":"m 999 0 l 708 0 l 708 36 q 718 37 730 38 q 742 39 750 43 q 760 48 763 59 q 766 71 766 89 l 766 317 q 766 367 748 392 q 730 417 697 417 q 676 417 660 411 q 644 404 630 395 q 616 384 608 374 q 600 364 595 356 l 595 94 q 595 77 599 66 q 603 55 614 48 q 622 44 632 41 q 642 37 653 36 l 653 0 l 375 0 l 375 36 q 384 37 397 38 q 410 40 417 43 q 427 48 430 59 q 433 69 433 89 l 433 317 q 433 367 415 392 q 397 417 364 417 q 343 417 327 411 q 311 404 297 395 q 283 384 275 374 q 267 364 262 356 l 262 94 q 262 77 266 66 q 271 55 282 48 q 290 44 300 41 q 310 37 321 36 l 321 0 l 28 0 l 28 36 q 41 37 53 38 q 65 40 74 43 q 90 49 96 60 q 102 71 102 89 l 102 373 q 102 389 93 404 q 85 418 73 427 q 64 433 51 437 q 38 440 21 442 l 21 478 l 254 490 l 262 483 l 262 414 l 264 414 q 277 426 296 443 q 315 460 332 470 q 350 482 378 490 q 406 498 440 498 q 496 498 533 473 q 570 449 586 409 l 590 409 q 604 422 625 440 q 646 458 663 469 q 682 481 711 489 q 741 498 774 498 q 848 498 888 454 q 928 411 928 331 l 928 93 q 928 75 933 64 q 938 53 953 47 q 960 44 972 41 q 983 37 999 36 z"},"#":{"x_min":0,"x_max":703,"ha":703,"o":"m 627 365 l 500 365 l 461 240 l 598 240 l 598 162 l 438 162 l 389 0 l 316 0 l 365 162 l 253 162 l 204 0 l 131 0 l 180 162 l 76 162 l 76 240 l 204 240 l 242 365 l 105 365 l 105 443 l 266 443 l 316 610 l 389 610 l 338 443 l 451 443 l 501 610 l 574 610 l 523 443 l 627 443 z m 428 366 l 314 366 l 276 239 l 389 239 z"},",":{"x_min":0,"x_max":328,"ha":328,"o":"m 263 26 q 263 -34 213 -96 q 164 -158 94 -190 l 72 -155 q 96 -143 117 -128 q 139 -113 155 -94 q 172 -73 182 -52 q 192 -31 195 0 l 167 0 q 118 0 92 22 q 67 45 67 84 q 67 116 91 141 q 116 166 151 166 q 206 166 235 129 q 263 91 263 26 z"},"n":{"x_min":0,"x_max":690,"ha":690,"o":"m 673 0 l 379 0 l 379 36 q 388 37 401 38 q 415 40 421 43 q 432 48 436 59 q 440 69 440 89 l 440 317 q 440 367 422 392 q 404 417 368 417 q 349 417 332 412 q 315 406 299 395 q 285 385 276 375 q 268 364 262 356 l 262 94 q 262 77 267 66 q 271 54 283 48 q 291 44 302 41 q 314 37 325 36 l 325 0 l 28 0 l 28 36 q 41 37 53 38 q 65 40 74 43 q 90 48 96 60 q 102 71 102 89 l 102 373 q 102 388 94 403 q 86 417 73 427 q 64 433 51 437 q 38 440 21 442 l 21 478 l 254 490 l 262 483 l 262 412 l 264 412 q 277 424 297 441 q 316 458 333 469 q 351 481 380 489 q 410 498 443 498 q 522 498 562 452 q 602 407 602 333 l 602 93 q 602 75 607 64 q 613 54 627 47 q 635 44 647 41 q 658 37 673 36 z"},"h":{"x_min":0,"x_max":680,"ha":680,"o":"m 663 0 l 369 0 l 369 36 q 379 37 392 38 q 405 40 412 43 q 422 48 426 59 q 430 69 430 89 l 430 317 q 430 368 411 393 q 393 417 358 417 q 338 417 322 412 q 305 406 289 395 q 274 385 266 375 q 257 364 251 356 l 251 94 q 251 76 256 66 q 260 55 272 48 q 280 44 292 41 q 304 37 315 36 l 315 0 l 18 0 l 18 36 q 31 37 43 38 q 55 40 64 43 q 80 49 85 60 q 91 71 91 89 l 91 633 q 91 649 83 667 q 76 684 63 693 q 53 699 35 703 q 16 707 1 708 l 1 743 l 244 756 l 251 748 l 251 412 l 253 412 q 272 429 287 442 q 302 456 323 469 q 341 481 370 489 q 399 498 433 498 q 512 498 552 452 q 592 407 592 333 l 592 93 q 592 75 597 64 q 603 54 617 47 q 626 43 637 41 q 647 38 663 36 z"},"z":{"x_min":0,"x_max":525,"ha":525,"o":"m 502 0 l 21 0 l 21 34 l 302 440 q 244 440 197 438 q 151 437 124 427 q 115 423 99 391 q 84 359 75 325 l 41 325 l 41 484 l 495 484 l 495 454 l 213 44 q 225 44 248 44 q 270 43 291 43 q 314 43 342 45 q 369 46 384 48 q 404 50 416 62 q 428 73 435 88 q 441 103 452 131 q 462 160 467 182 l 502 182 z"},"B":{"x_min":0,"x_max":757,"ha":757,"o":"m 646 318 q 677 296 696 264 q 716 231 716 188 q 716 135 694 98 q 671 62 630 41 q 586 19 529 9 q 471 0 394 0 l 34 0 l 34 38 q 49 40 72 42 q 95 45 104 49 q 122 57 129 69 q 135 81 135 100 l 135 588 q 135 605 130 617 q 125 629 104 638 q 89 644 69 648 q 49 652 34 655 l 34 693 l 410 693 q 552 693 615 654 q 678 615 678 539 q 678 503 664 477 q 650 450 624 431 q 600 413 566 399 q 533 386 495 377 l 495 368 q 533 364 574 351 q 615 338 646 318 z m 488 526 q 488 584 456 616 q 423 648 358 648 q 349 648 334 648 q 319 647 309 646 l 309 390 l 334 390 q 413 390 451 427 q 488 463 488 526 z m 522 194 q 522 266 479 305 q 437 343 356 343 q 347 343 331 343 q 316 342 309 341 l 309 88 q 313 70 336 57 q 359 45 392 45 q 450 45 486 84 q 522 123 522 194 z"},"K":{"x_min":0,"x_max":817,"ha":817,"o":"m 848 0 l 573 0 q 511 95 461 159 q 412 223 334 320 l 309 320 l 309 102 q 309 84 315 72 q 321 60 340 52 q 349 48 366 44 q 384 40 401 38 l 401 0 l 33 0 l 33 38 q 46 39 70 41 q 94 43 104 47 q 122 54 128 66 q 135 78 135 97 l 135 588 q 135 605 129 617 q 124 628 104 638 q 89 645 67 649 q 46 653 33 655 l 33 693 l 413 693 l 413 655 q 398 653 377 651 q 355 648 340 643 q 321 637 315 623 q 309 609 309 593 l 309 359 l 329 359 q 367 394 418 443 q 469 492 497 523 q 536 566 554 592 q 572 617 572 636 q 572 644 555 648 q 537 653 501 655 l 501 693 l 802 693 l 802 655 q 748 649 710 635 q 673 621 637 588 q 584 542 551 507 q 517 473 463 419 q 510 362 576 279 q 642 196 708 118 q 724 98 746 79 q 767 61 793 50 q 805 44 821 42 q 836 39 848 38 z"},"R":{"x_min":0,"x_max":797,"ha":797,"o":"m 829 0 l 563 0 q 495 105 449 168 q 403 230 335 312 l 309 312 l 309 102 q 309 84 315 72 q 322 60 340 52 q 350 48 369 44 q 389 40 403 38 l 403 0 l 34 0 l 34 38 q 48 40 71 42 q 94 45 104 49 q 123 57 129 69 q 135 81 135 99 l 135 588 q 135 605 130 617 q 125 629 104 638 q 88 644 67 648 q 46 653 34 655 l 34 693 l 422 693 q 553 693 620 652 q 688 611 688 529 q 688 456 646 412 q 604 368 519 343 q 552 300 596 243 q 641 187 688 127 q 704 108 730 81 q 756 53 776 47 q 787 43 804 41 q 822 39 829 38 z m 497 515 q 497 584 458 616 q 419 648 347 648 l 309 648 l 309 358 l 346 358 q 417 358 457 396 q 497 434 497 515 z"},"T":{"x_min":0,"x_max":684,"ha":684,"o":"m 678 495 l 640 495 q 625 539 592 590 q 558 641 530 645 q 514 646 491 648 q 468 649 452 649 l 429 649 l 429 106 q 429 88 435 75 q 441 62 460 54 q 471 49 495 45 q 519 40 535 38 l 535 0 l 149 0 l 149 38 q 163 40 189 42 q 214 45 224 49 q 243 57 249 70 q 255 83 255 101 l 255 649 l 232 649 q 216 649 193 648 q 170 646 154 645 q 126 641 93 590 q 59 539 44 495 l 6 495 l 6 693 l 678 693 z"},"P":{"x_min":0,"x_max":701,"ha":701,"o":"m 683 520 q 683 461 659 419 q 635 376 592 350 q 548 323 492 311 q 436 298 365 298 l 309 298 l 309 104 q 309 86 315 73 q 322 60 340 52 q 350 48 372 44 q 394 40 409 38 l 409 0 l 34 0 l 34 38 q 48 40 71 42 q 95 45 104 49 q 123 57 129 68 q 135 79 135 99 l 135 588 q 135 605 129 617 q 124 630 104 638 q 90 644 68 649 q 45 653 34 655 l 34 693 l 416 693 q 550 693 617 650 q 683 607 683 520 z m 493 495 q 493 573 461 611 q 430 648 349 648 l 309 648 l 309 344 l 329 344 q 409 344 451 381 q 493 418 493 495 z"},"|":{"x_min":0,"x_max":388,"ha":388,"o":"m 236 -207 l 152 -207 l 152 744 l 236 744 z"},"t":{"x_min":0,"x_max":397,"ha":397,"o":"m 392 22 q 360 9 325 -2 q 289 -13 238 -13 q 162 -13 125 24 q 88 61 88 130 l 88 430 l 0 430 l 0 482 l 90 482 l 90 630 l 249 630 l 249 482 l 385 482 l 385 430 l 250 430 l 250 162 q 250 105 265 81 q 281 57 322 57 q 335 57 359 59 q 382 61 392 63 z"},"M":{"x_min":0,"x_max":1023,"ha":1023,"o":"m 986 0 l 610 0 l 610 38 q 627 40 651 43 q 675 46 684 50 q 702 58 710 70 q 718 83 718 103 l 718 620 l 479 11 l 418 11 q 414 27 396 75 q 379 123 368 152 l 193 628 l 193 207 q 193 146 201 115 q 209 83 227 68 q 239 58 271 49 q 302 40 315 38 l 315 0 l 17 0 l 17 38 q 29 40 57 45 q 84 50 102 62 q 122 76 128 109 q 135 141 135 201 l 135 544 q 135 576 127 596 q 120 617 104 629 q 84 645 64 649 q 43 653 22 655 l 22 693 l 341 693 l 512 235 l 656 607 q 664 627 670 656 q 677 684 678 693 l 985 693 l 985 655 q 969 654 952 651 q 935 648 919 643 q 900 637 894 623 q 888 609 888 593 l 888 102 q 888 84 894 73 q 900 61 919 52 q 929 47 951 43 q 974 40 986 38 z"},"g":{"x_min":0,"x_max":577,"ha":577,"o":"m 575 430 l 468 430 q 487 408 496 384 q 506 360 506 334 q 506 301 488 271 q 470 242 440 223 q 411 204 371 193 q 331 183 284 183 l 204 183 q 198 178 191 169 q 184 159 184 150 q 184 129 201 121 q 218 112 263 111 q 308 110 353 108 q 398 105 418 104 q 446 103 474 93 q 502 83 522 67 q 545 50 560 23 q 574 -3 574 -38 q 574 -75 556 -108 q 539 -141 502 -165 q 463 -189 409 -203 q 355 -217 276 -217 q 147 -217 81 -186 q 14 -154 14 -92 q 14 -53 50 -28 q 86 -3 162 -1 l 162 5 q 117 20 92 45 q 67 70 67 104 q 67 124 77 138 q 87 152 103 163 q 116 172 136 179 q 155 186 168 189 l 168 195 q 103 219 72 254 q 41 290 41 340 q 41 412 107 455 q 173 498 274 498 q 308 498 339 492 q 370 487 386 482 l 575 482 z m 346 336 q 346 394 328 427 q 310 460 272 460 q 253 460 239 451 q 225 442 216 425 q 208 408 205 386 q 202 364 202 340 q 202 287 221 253 q 239 219 273 219 q 309 219 327 250 q 346 280 346 336 z m 428 -74 q 428 -57 419 -41 q 410 -24 377 -14 q 360 -11 320 -10 q 279 -9 209 -9 q 192 -24 180 -44 q 169 -64 169 -92 q 169 -104 176 -119 q 183 -134 197 -146 q 214 -161 235 -169 q 256 -177 299 -177 q 362 -177 395 -152 q 428 -128 428 -74 z"},"j":{"x_min":0,"x_max":346,"ha":346,"o":"m 269 58 q 269 7 252 -44 q 235 -95 203 -132 q 168 -172 119 -194 q 70 -217 6 -217 q -53 -217 -85 -194 q -117 -171 -117 -133 q -117 -119 -114 -107 q -110 -96 -100 -83 q -92 -72 -76 -65 q -60 -57 -39 -57 q 1 -57 23 -86 q 45 -115 68 -173 q 88 -162 98 -125 q 107 -89 107 34 l 107 371 q 107 388 100 401 q 93 414 80 423 q 71 429 51 435 q 30 440 15 442 l 15 478 l 262 490 l 269 483 z m 271 666 q 271 629 242 603 q 214 577 175 577 q 135 577 107 603 q 78 629 78 666 q 78 703 107 729 q 135 756 175 756 q 214 756 243 729 q 271 703 271 666 z"},"i":{"x_min":0,"x_max":354,"ha":354,"o":"m 337 0 l 28 0 l 28 36 q 41 37 53 38 q 65 40 74 43 q 90 49 96 60 q 103 71 103 89 l 103 373 q 103 390 95 403 q 87 416 75 424 q 66 430 49 435 q 31 440 16 442 l 16 478 l 255 490 l 263 483 l 263 95 q 263 78 270 66 q 277 54 291 48 q 301 44 312 41 q 324 37 337 36 z m 266 666 q 266 629 237 603 q 208 577 169 577 q 130 577 101 603 q 73 629 73 666 q 73 703 101 729 q 130 756 169 756 q 209 756 237 729 q 266 703 266 666 z"},"y":{"x_min":0,"x_max":562,"ha":562,"o":"m 580 449 q 558 445 537 432 q 517 419 503 391 q 461 302 417 202 q 372 102 318 -15 q 288 -81 259 -120 q 231 -159 206 -180 q 183 -199 160 -208 q 137 -217 113 -217 q 67 -217 38 -191 q 10 -165 10 -133 q 10 -119 13 -107 q 16 -96 26 -83 q 34 -72 51 -65 q 67 -57 87 -57 q 115 -57 140 -76 q 165 -95 191 -129 q 208 -113 231 -81 q 255 -49 266 -15 q 208 107 163 197 q 118 286 62 396 q 50 420 30 433 q 9 446 -14 449 l -14 484 l 285 484 l 285 449 q 269 448 247 441 q 225 435 225 424 q 225 420 227 415 q 228 411 232 402 q 249 368 279 307 q 310 246 350 165 q 380 234 402 284 q 423 334 443 382 q 448 395 448 402 q 449 409 449 411 q 449 420 441 427 q 432 433 420 438 q 408 443 397 445 q 386 448 378 449 l 378 484 l 580 484 z"},"@":{"x_min":0,"x_max":967,"ha":967,"o":"m 810 573 q 852 528 873 470 q 894 412 894 350 q 894 227 824 142 q 754 56 651 56 q 597 56 562 74 q 528 93 518 121 l 516 121 q 504 109 492 96 q 479 84 465 76 q 450 67 436 63 q 422 59 399 59 q 339 59 306 96 q 272 134 272 196 q 272 243 292 293 q 312 342 346 383 q 379 423 426 448 q 473 474 523 474 q 557 474 574 462 q 592 450 600 426 l 601 426 l 617 468 l 742 468 l 644 197 q 640 188 637 170 q 634 152 634 143 q 634 123 643 112 q 651 100 670 100 q 747 100 793 171 q 840 241 840 355 q 840 413 821 461 q 802 509 764 545 q 727 582 670 602 q 613 623 541 623 q 471 623 406 597 q 340 571 287 520 q 235 471 203 399 q 171 328 171 239 q 171 153 196 87 q 222 21 266 -22 q 311 -67 372 -89 q 432 -112 505 -112 q 589 -112 653 -90 q 718 -68 769 -29 l 788 -59 q 732 -104 662 -131 q 593 -158 502 -158 q 425 -158 348 -133 q 270 -108 211 -60 q 151 -12 114 62 q 77 136 77 233 q 77 318 110 397 q 144 476 205 538 q 265 598 353 635 q 441 672 545 672 q 637 672 702 645 q 767 618 810 573 z m 581 371 q 580 398 567 415 q 554 432 529 432 q 504 432 482 410 q 459 388 441 353 q 423 317 413 272 q 402 227 402 184 q 402 150 412 133 q 421 115 442 115 q 461 115 476 125 q 490 134 506 156 z"},".":{"x_min":0,"x_max":328,"ha":328,"o":"m 261 81 q 261 42 232 14 q 204 -14 165 -14 q 125 -14 96 14 q 68 42 68 81 q 68 120 96 149 q 125 177 165 177 q 204 177 232 148 q 261 120 261 81 z"},"p":{"x_min":0,"x_max":658,"ha":658,"o":"m 623 238 q 623 135 554 61 q 485 -13 380 -13 q 333 -13 304 -3 q 274 6 255 20 l 251 20 l 251 -117 q 251 -134 259 -147 q 267 -160 280 -166 q 293 -171 318 -175 q 342 -180 358 -181 l 358 -217 l 5 -217 l 5 -181 q 18 -180 36 -177 q 55 -174 64 -171 q 80 -166 85 -153 q 91 -140 91 -124 l 91 376 q 89 392 83 404 q 77 417 64 426 q 54 432 38 436 q 22 440 6 442 l 6 478 l 244 490 l 251 484 l 251 430 l 255 429 q 288 461 327 479 q 366 498 405 498 q 506 498 564 426 q 623 354 623 238 z m 448 236 q 448 272 442 306 q 437 339 423 366 q 410 392 388 408 q 367 423 335 423 q 304 423 285 412 q 266 401 251 384 l 251 107 q 254 97 263 82 q 271 66 279 57 q 292 44 307 38 q 323 31 341 31 q 390 31 419 83 q 448 135 448 236 z"},"X":{"x_min":0,"x_max":809,"ha":809,"o":"m 810 0 l 388 0 l 388 38 q 448 42 466 49 q 483 56 483 67 q 483 74 477 88 q 471 102 459 120 q 442 148 414 192 q 385 235 354 281 q 252 162 224 123 q 197 84 197 71 q 197 64 199 60 q 201 55 210 51 q 217 47 234 43 q 250 40 273 38 l 273 0 l 4 0 l 4 38 q 25 40 38 42 q 50 45 62 51 q 91 64 113 84 q 135 104 158 131 q 192 170 235 219 q 278 268 326 323 q 281 391 236 455 q 191 519 160 563 q 144 586 121 608 q 98 631 72 641 q 60 646 44 650 q 28 653 6 655 l 6 693 l 430 693 l 430 655 q 380 653 357 646 q 333 639 333 625 q 333 619 338 608 q 342 598 356 575 q 368 556 392 518 q 417 480 448 433 q 541 542 564 576 q 588 609 588 622 q 588 636 574 643 q 561 650 510 655 l 510 693 l 780 693 l 780 655 q 762 654 750 651 q 738 648 722 642 q 692 628 671 608 q 651 588 626 562 q 590 521 557 484 q 524 446 477 391 q 536 302 578 242 q 620 182 657 129 q 672 107 695 84 q 718 62 743 52 q 755 47 770 43 q 785 40 810 38 z"},"*":{"x_min":0,"x_max":482,"ha":482,"o":"m 443 529 q 443 507 430 497 q 418 487 399 487 q 387 487 348 498 q 310 508 267 514 q 295 477 330 444 q 364 411 364 388 q 364 372 350 360 q 335 348 320 348 q 309 348 300 354 q 291 360 284 372 q 278 382 268 420 q 258 458 241 499 q 225 460 214 420 q 204 380 199 372 q 191 359 183 354 q 175 348 163 348 q 146 348 133 360 q 119 371 119 388 q 119 411 153 444 q 187 477 215 514 q 174 509 135 498 q 95 487 83 487 q 64 487 52 497 q 40 507 40 529 q 40 549 52 560 q 64 571 83 571 q 99 571 132 561 q 166 551 215 545 q 183 586 151 617 q 119 648 119 670 q 119 687 133 698 q 147 710 163 710 q 174 710 183 705 q 192 699 199 688 q 205 677 215 638 q 225 600 241 560 q 257 600 268 639 q 278 677 284 688 q 290 698 299 704 q 309 710 320 710 q 336 710 350 699 q 364 688 364 670 q 364 648 333 618 q 303 588 268 545 q 316 551 351 561 q 386 571 399 571 q 418 571 430 560 q 443 549 443 529 z"},"Y":{"x_min":0,"x_max":732,"ha":732,"o":"m 765 655 q 748 653 733 648 q 718 644 705 636 q 684 625 668 606 q 651 588 636 565 q 604 519 569 465 q 534 410 493 345 q 466 303 460 281 q 454 259 454 204 l 454 106 q 454 88 461 75 q 467 62 486 54 q 494 50 521 45 q 548 39 561 38 l 561 0 l 174 0 l 174 38 q 188 39 214 42 q 239 45 250 49 q 268 57 274 70 q 281 83 281 101 l 281 223 q 281 239 280 251 q 280 264 277 272 q 273 281 265 296 q 257 310 244 333 q 206 399 171 458 q 136 517 104 569 q 87 596 71 612 q 54 628 36 639 q 23 646 4 650 q -15 654 -30 655 l -30 693 l 367 693 l 367 655 q 312 653 293 647 q 274 641 274 630 q 274 625 281 609 q 289 593 307 559 q 323 527 355 472 q 387 416 432 341 q 525 488 560 547 q 594 605 594 618 q 594 635 574 644 q 554 652 508 655 l 508 693 l 765 693 z"},"c":{"x_min":0,"x_max":531,"ha":531,"o":"m 307 -16 q 239 -16 187 4 q 135 24 102 58 q 68 93 51 140 q 35 188 35 243 q 35 294 55 340 q 75 386 110 420 q 146 456 198 477 q 251 499 315 499 q 405 499 458 465 q 510 431 510 373 q 510 338 491 316 q 473 295 427 295 q 391 295 366 312 q 341 330 341 358 q 341 382 349 406 q 357 429 358 441 q 353 450 345 455 q 336 459 319 459 q 297 459 279 449 q 261 439 245 413 q 230 389 221 348 q 212 307 212 249 q 212 162 253 109 q 293 56 350 56 q 404 56 436 80 q 468 104 493 148 l 530 123 q 515 93 494 69 q 473 44 443 25 q 413 5 381 -5 q 349 -16 307 -16 z"},"!":{"x_min":0,"x_max":376,"ha":376,"o":"m 283 616 q 283 596 276 563 q 269 530 258 485 q 248 443 235 381 q 222 318 207 226 l 169 226 q 155 319 142 381 q 128 443 118 485 q 109 523 101 560 q 93 597 93 616 q 93 653 121 680 q 149 707 188 707 q 227 707 255 680 q 283 653 283 616 z m 282 76 q 282 39 254 12 q 226 -14 188 -14 q 150 -14 122 12 q 94 39 94 76 q 94 113 122 140 q 150 167 188 167 q 226 167 254 140 q 282 113 282 76 z"},"/":{"x_min":0,"x_max":472,"ha":472,"o":"m 438 744 l 101 -207 l 13 -207 l 350 744 z"},"[":{"x_min":0,"x_max":447,"ha":447,"o":"m 414 -151 l 90 -151 l 90 742 l 414 742 l 414 693 l 244 693 l 244 -103 l 414 -103 z"},"6":{"x_min":0,"x_max":648,"ha":648,"o":"m 607 226 q 607 123 529 53 q 451 -17 330 -17 q 204 -17 127 62 q 50 142 50 275 q 50 454 171 571 q 292 688 499 712 l 510 664 l 458 655 q 399 639 359 611 q 319 583 293 546 q 269 512 254 468 q 240 424 233 382 q 275 420 317 433 q 359 446 407 446 q 491 446 549 385 q 607 324 607 226 z m 426 213 q 426 290 399 335 q 372 381 327 381 q 296 381 274 371 q 252 360 229 328 q 229 325 229 319 q 229 313 229 303 q 228 292 228 283 q 228 274 228 268 q 228 150 256 88 q 285 26 330 26 q 373 26 400 75 q 426 124 426 213 z"},"r":{"x_min":0,"x_max":520,"ha":520,"o":"m 515 395 q 515 358 492 330 q 469 302 431 302 q 396 302 371 320 q 346 338 346 373 q 346 390 349 400 q 351 409 353 417 q 331 417 306 402 q 281 387 262 363 l 262 95 q 262 78 267 66 q 272 55 285 49 q 296 43 320 40 q 344 36 355 36 l 355 0 l 28 0 l 28 36 q 41 37 53 38 q 65 40 74 43 q 90 48 96 60 q 102 71 102 89 l 102 373 q 102 391 93 405 q 85 418 73 427 q 64 433 51 437 q 38 440 21 442 l 21 478 l 254 490 l 262 483 l 262 412 l 264 412 q 297 451 335 473 q 373 496 414 496 q 459 496 487 468 q 515 439 515 395 z"},"2":{"x_min":0,"x_max":626,"ha":626,"o":"m 583 0 l 54 0 l 54 88 q 88 124 130 153 q 171 182 213 204 q 259 228 290 247 q 320 266 338 286 q 355 305 363 328 q 371 350 371 378 q 371 440 341 468 q 312 497 264 497 q 249 497 235 494 q 222 492 207 486 q 214 464 221 441 q 228 417 228 389 q 228 354 203 333 q 178 313 140 313 q 103 313 81 337 q 60 361 60 395 q 60 455 129 498 q 198 542 298 542 q 413 542 484 502 q 555 462 555 375 q 555 329 536 301 q 518 273 481 252 q 448 233 408 221 q 369 209 323 198 q 275 186 239 172 q 203 158 175 139 l 175 134 l 583 134 z"},"{":{"x_min":0,"x_max":500,"ha":500,"o":"m 467 -163 q 402 -163 349 -157 q 295 -151 257 -131 q 219 -112 199 -75 q 178 -38 178 23 q 178 52 181 84 q 185 115 185 142 q 185 177 175 199 q 165 220 145 233 q 125 246 96 250 q 68 255 35 257 l 35 331 q 67 333 96 338 q 125 342 145 355 q 165 368 175 388 q 185 407 185 446 q 185 474 181 505 q 178 536 178 565 q 178 625 198 662 q 218 698 257 719 q 293 738 349 744 q 404 750 467 750 l 467 708 q 440 706 421 703 q 401 700 380 687 q 363 676 352 654 q 341 632 341 596 l 341 503 q 341 453 327 418 q 313 383 288 362 q 264 342 232 331 q 200 319 163 312 l 163 275 q 198 269 231 257 q 264 245 288 225 q 312 205 326 171 q 341 137 341 84 l 341 -8 q 341 -44 352 -66 q 362 -88 380 -100 q 398 -110 421 -115 q 444 -119 467 -120 z"},"9":{"x_min":0,"x_max":648,"ha":648,"o":"m 598 248 q 598 70 478 -43 q 357 -156 149 -183 l 138 -135 l 190 -126 q 250 -109 290 -82 q 329 -55 354 -20 q 381 17 395 58 q 408 99 415 143 q 372 105 332 93 q 292 81 241 81 q 199 81 163 98 q 126 114 99 143 q 72 172 56 214 q 41 255 41 303 q 41 406 120 474 q 199 542 318 542 q 446 542 522 462 q 598 382 598 248 z m 419 221 q 419 228 420 238 q 420 248 420 257 q 420 374 392 436 q 364 499 319 499 q 276 499 249 451 q 222 404 222 314 q 222 236 249 190 q 277 144 322 144 q 350 144 374 155 q 398 166 418 197 q 418 199 419 205 q 419 211 419 221 z"}," ":{"x_min":0,"x_max":254,"ha":254,"o":""},"I":{"x_min":0,"x_max":446,"ha":446,"o":"m 415 0 l 31 0 l 31 38 q 44 39 70 41 q 95 43 105 47 q 123 54 130 66 q 136 78 136 97 l 136 588 q 136 604 130 617 q 124 630 105 638 q 93 643 70 648 q 47 653 31 655 l 31 693 l 415 693 l 415 655 q 400 653 378 651 q 356 648 341 643 q 322 637 316 623 q 310 610 310 593 l 310 102 q 310 84 316 72 q 323 60 341 52 q 352 47 375 43 q 399 39 415 38 z"},"H":{"x_min":0,"x_max":913,"ha":913,"o":"m 879 0 l 505 0 l 505 38 q 517 39 541 41 q 564 43 573 47 q 591 54 598 66 q 604 78 604 97 l 604 335 l 309 335 l 309 102 q 309 85 316 72 q 323 59 340 52 q 349 48 372 43 q 394 39 408 38 l 408 0 l 34 0 l 34 38 q 46 39 70 41 q 93 44 104 48 q 122 54 128 67 q 135 80 135 98 l 135 588 q 135 605 129 617 q 123 628 104 637 q 90 644 67 649 q 44 654 34 655 l 34 693 l 408 693 l 408 655 q 393 654 372 650 q 351 646 340 643 q 321 636 315 622 q 309 608 309 593 l 309 386 l 604 386 l 604 588 q 604 605 598 617 q 592 628 573 637 q 560 643 539 648 q 518 653 505 655 l 505 693 l 879 693 l 879 655 q 864 654 844 651 q 825 647 809 643 q 791 636 784 623 q 778 609 778 593 l 778 102 q 778 84 784 72 q 791 60 809 52 q 821 47 843 43 q 865 39 879 38 z"},"4":{"x_min":0,"x_max":649,"ha":649,"o":"m 616 5 l 511 5 l 511 -180 l 347 -180 l 347 5 l 24 5 l 24 95 l 375 539 l 511 539 l 511 108 l 616 108 z m 347 108 l 347 422 l 99 108 z"},"~":{"x_min":0,"x_max":703,"ha":703,"o":"m 632 359 q 623 332 606 304 q 590 275 570 253 q 545 226 516 210 q 487 193 454 193 q 417 193 386 206 q 356 219 328 236 q 305 250 276 264 q 247 279 224 279 q 191 279 167 256 q 144 232 122 182 l 71 202 q 78 224 94 252 q 110 281 133 308 q 155 333 185 350 q 215 368 249 368 q 289 368 320 354 q 351 340 376 325 q 402 309 427 296 q 453 282 479 282 q 514 282 538 308 q 562 333 582 379 z"},"D":{"x_min":0,"x_max":834,"ha":834,"o":"m 658 622 q 721 580 760 511 q 799 442 799 342 q 799 254 764 189 q 729 124 672 82 q 613 41 539 20 q 464 0 383 0 l 34 0 l 34 38 q 49 39 73 41 q 96 43 104 47 q 122 54 128 67 q 135 79 135 97 l 135 588 q 135 604 129 618 q 123 631 104 640 q 85 648 65 651 q 44 654 33 655 l 33 693 l 401 693 q 460 693 528 678 q 595 663 658 622 z m 558 125 q 582 164 593 218 q 604 272 604 342 q 604 411 589 468 q 575 524 546 564 q 518 604 476 626 q 434 648 380 648 q 363 648 341 648 q 319 647 309 646 l 309 121 q 309 103 313 90 q 318 76 329 66 q 340 56 357 50 q 373 44 399 44 q 455 44 494 65 q 534 85 558 125 z"},"^":{"x_min":0,"x_max":703,"ha":703,"o":"m 602 371 l 506 371 l 352 622 l 197 371 l 102 371 l 318 711 l 386 711 z"},"0":{"x_min":0,"x_max":701,"ha":701,"o":"m 578 455 q 615 416 633 366 q 651 316 651 262 q 651 198 629 147 q 606 95 568 60 q 527 22 474 3 q 420 -17 350 -17 q 276 -17 220 6 q 164 29 126 67 q 89 104 70 154 q 50 205 50 262 q 50 319 69 368 q 87 417 125 457 q 162 495 219 518 q 276 542 351 542 q 427 542 484 518 q 542 494 578 455 z m 440 91 q 455 124 461 164 q 467 205 467 262 q 467 314 461 355 q 456 397 442 429 q 429 462 406 480 q 384 499 351 499 q 318 499 295 481 q 273 463 259 430 q 246 400 240 357 q 234 314 234 262 q 234 208 240 170 q 245 132 258 97 q 271 65 293 45 q 316 26 350 26 q 381 26 404 43 q 427 61 440 91 z"},"F":{"x_min":0,"x_max":671,"ha":671,"o":"m 656 508 l 619 508 q 604 548 569 594 q 533 640 500 644 q 486 646 461 647 q 437 649 417 649 l 309 649 l 309 377 l 377 377 q 407 377 428 384 q 450 390 466 407 q 479 419 490 448 q 501 477 504 497 l 541 497 l 541 206 l 504 206 q 502 228 489 259 q 476 291 466 301 q 452 316 430 324 q 408 332 377 332 l 309 332 l 309 102 q 309 84 315 72 q 322 60 340 52 q 351 47 370 44 q 389 40 407 38 l 407 0 l 34 0 l 34 38 q 48 40 71 42 q 95 45 104 49 q 122 56 128 68 q 135 80 135 99 l 135 588 q 135 604 129 617 q 123 629 104 638 q 90 644 68 648 q 45 653 34 655 l 34 693 l 656 693 z"},"`":{"x_min":0,"x_max":500,"ha":500,"o":"m 362 556 l 341 538 q 260 586 219 608 q 178 630 148 650 q 125 666 116 677 q 106 689 106 713 q 106 730 125 743 q 144 756 167 756 q 197 756 215 747 q 232 738 255 705 q 271 682 299 643 q 326 604 362 556 z"},"k":{"x_min":0,"x_max":632,"ha":632,"o":"m 655 0 l 425 0 q 382 75 347 127 q 312 179 281 223 l 251 198 l 251 92 q 251 74 257 63 q 262 52 276 46 q 285 42 297 40 q 309 37 320 36 l 320 0 l 18 0 l 18 36 q 30 37 42 38 q 55 40 64 43 q 80 48 85 60 q 91 71 91 89 l 91 633 q 91 649 84 667 q 77 684 63 693 q 54 699 35 703 q 17 707 1 708 l 1 743 l 244 756 l 251 748 l 251 244 q 288 276 333 319 q 378 361 405 389 q 421 406 423 414 q 425 423 425 425 q 425 434 409 439 q 394 445 363 450 l 363 484 l 611 484 l 611 451 q 562 437 537 425 q 511 413 481 393 q 461 380 442 365 q 423 351 399 330 q 447 260 487 201 q 528 142 572 76 q 587 53 610 45 q 632 38 655 36 z"},"u":{"x_min":0,"x_max":677,"ha":677,"o":"m 666 10 l 433 -4 l 425 3 l 425 67 l 422 67 q 406 52 390 37 q 374 23 352 11 q 327 -2 305 -8 q 283 -15 240 -15 q 167 -15 127 30 q 88 74 88 155 l 88 375 q 88 394 81 406 q 73 418 61 427 q 51 435 36 438 q 20 441 7 442 l 7 478 l 244 490 l 250 483 l 250 158 q 250 108 269 84 q 288 60 322 60 q 356 60 384 78 q 412 96 424 117 l 424 380 q 424 396 418 410 q 412 423 399 431 q 391 437 374 439 q 358 441 341 442 l 341 478 l 578 490 l 585 483 l 585 106 q 585 89 592 77 q 599 65 612 57 q 621 51 636 49 q 651 46 666 46 z"},"]":{"x_min":0,"x_max":447,"ha":447,"o":"m 357 -151 l 34 -151 l 34 -103 l 203 -103 l 203 693 l 34 693 l 34 742 l 357 742 z"},"U":{"x_min":0,"x_max":833,"ha":833,"o":"m 832 655 q 817 653 791 648 q 764 643 746 630 q 728 618 720 586 q 712 555 712 491 l 712 233 q 712 120 635 50 q 558 -19 431 -19 q 283 -19 202 48 q 121 115 121 234 l 121 589 q 121 606 115 618 q 108 630 89 640 q 77 646 58 650 q 40 654 28 656 l 28 693 l 391 693 l 391 656 q 375 655 359 652 q 343 649 327 644 q 308 638 302 625 q 295 611 295 594 l 295 244 q 295 141 341 94 q 386 47 473 47 q 558 47 606 99 q 654 151 654 251 l 654 486 q 654 549 646 580 q 637 611 620 625 q 607 635 575 644 q 544 653 531 655 l 531 693 l 832 693 z"},"o":{"x_min":0,"x_max":636,"ha":636,"o":"m 527 427 q 563 393 582 346 q 601 299 601 245 q 601 190 582 142 q 563 94 527 60 q 489 23 435 4 q 382 -16 313 -16 q 253 -16 203 1 q 153 19 115 53 q 78 85 56 134 q 35 182 35 241 q 35 300 53 345 q 72 391 110 427 q 146 461 199 480 q 252 499 317 499 q 386 499 438 480 q 490 461 527 427 z m 402 88 q 413 116 418 155 q 423 194 423 246 q 423 280 418 324 q 413 368 403 393 q 392 424 371 441 q 350 459 318 459 q 284 459 263 440 q 242 421 231 391 q 221 363 217 325 q 213 288 213 248 q 213 194 216 159 q 220 125 233 89 q 244 59 265 42 q 286 24 318 24 q 348 24 369 40 q 390 57 402 88 z"},"N":{"x_min":0,"x_max":839,"ha":839,"o":"m 830 655 q 816 653 791 649 q 765 646 745 630 q 727 617 719 585 q 711 553 711 491 l 711 -4 l 625 -4 l 193 532 l 193 207 q 193 146 201 115 q 209 83 227 68 q 240 58 269 49 q 298 41 315 38 l 315 0 l 17 0 l 17 38 q 36 40 61 45 q 85 51 102 62 q 121 77 128 105 q 135 134 135 201 l 135 529 q 135 554 128 575 q 120 597 104 613 q 87 629 65 639 q 42 648 14 654 l 14 693 l 275 693 l 654 224 l 654 486 q 654 549 646 579 q 637 610 619 625 q 605 636 577 644 q 549 652 532 655 l 532 693 l 830 693 z"},"+":{"x_min":0,"x_max":703,"ha":703,"o":"m 623 241 l 392 241 l 392 10 l 311 10 l 311 241 l 80 241 l 80 320 l 311 320 l 311 551 l 392 551 l 392 320 l 623 320 z"},"G":{"x_min":0,"x_max":807,"ha":807,"o":"m 805 282 q 790 280 778 278 q 767 276 749 271 q 729 264 723 250 q 716 235 716 219 l 716 138 q 716 114 717 99 q 717 84 718 62 q 669 33 574 7 q 479 -19 398 -19 q 323 -19 257 4 q 191 27 142 73 q 92 118 63 186 q 35 253 35 340 q 35 421 62 490 q 88 559 139 608 q 189 658 260 685 q 332 711 419 711 q 478 711 528 697 q 579 683 611 666 l 642 693 l 684 693 l 688 440 l 646 440 q 608 554 557 609 q 505 664 426 664 q 332 664 281 582 q 230 500 230 356 q 230 203 280 117 q 330 30 422 30 q 465 30 498 43 q 532 56 550 73 l 550 214 q 550 231 544 243 q 538 255 519 264 q 504 271 482 275 q 460 280 445 282 l 445 320 l 805 320 z"},"q":{"x_min":0,"x_max":648,"ha":648,"o":"m 662 -217 l 320 -217 l 320 -181 q 333 -180 353 -177 q 372 -175 383 -171 q 398 -167 404 -154 q 411 -141 411 -124 l 411 47 l 407 48 q 398 40 385 29 q 372 18 353 9 q 332 -1 312 -7 q 293 -13 261 -13 q 160 -13 97 58 q 35 128 35 247 q 35 355 109 426 q 184 498 298 498 q 356 498 402 485 q 449 472 489 451 l 552 513 l 579 507 q 578 476 574 427 q 571 377 571 344 l 571 -115 q 571 -133 578 -146 q 584 -159 599 -166 q 610 -170 628 -175 q 647 -179 662 -181 z m 411 97 l 411 373 q 407 385 401 399 q 395 414 384 427 q 373 439 357 447 q 341 455 319 455 q 270 455 240 397 q 210 340 210 240 q 210 199 216 167 q 223 136 235 112 q 250 86 271 72 q 291 58 325 58 q 356 58 376 69 q 396 79 411 97 z"},"d":{"x_min":0,"x_max":663,"ha":663,"o":"m 660 10 l 419 -4 l 412 3 l 412 48 l 408 49 q 384 23 344 4 q 303 -16 261 -16 q 163 -16 99 58 q 35 131 35 247 q 35 350 106 424 q 178 498 279 498 q 319 498 354 489 q 390 479 411 467 l 411 627 q 411 645 403 661 q 396 677 384 686 q 369 696 346 701 q 323 706 300 708 l 300 743 l 564 756 l 571 748 l 571 108 q 571 89 577 77 q 583 64 597 57 q 607 51 627 49 q 647 46 660 46 z m 411 97 l 411 373 q 407 384 401 398 q 395 412 384 424 q 375 434 358 442 q 342 450 321 450 q 272 450 241 395 q 210 339 210 239 q 210 199 216 168 q 221 136 235 110 q 250 84 272 70 q 294 55 325 55 q 355 55 375 67 q 394 78 411 97 z"},"1":{"x_min":0,"x_max":490,"ha":490,"o":"m 462 0 l 59 0 l 59 37 q 74 38 106 42 q 138 46 149 50 q 164 55 172 66 q 181 78 181 99 l 181 408 l 57 408 l 57 455 l 84 455 q 126 455 157 464 q 188 473 209 486 q 230 500 243 515 q 257 529 265 541 l 351 541 q 349 509 348 466 q 346 424 346 390 l 346 104 q 346 86 354 73 q 361 61 375 54 q 388 48 418 43 q 448 38 462 37 z"},"5":{"x_min":0,"x_max":599,"ha":599,"o":"m 471 231 q 507 207 532 166 q 557 125 557 63 q 557 -44 474 -112 q 391 -180 261 -180 q 161 -180 94 -137 q 27 -94 27 -36 q 27 -1 50 23 q 72 47 109 47 q 147 47 172 26 q 197 5 197 -29 q 197 -54 188 -83 q 180 -111 175 -126 q 187 -131 202 -133 q 218 -135 231 -135 q 259 -135 286 -123 q 313 -110 332 -86 q 354 -59 365 -22 q 376 16 376 63 q 376 132 340 176 q 303 220 244 220 q 199 220 168 202 q 137 184 113 154 l 75 167 l 122 526 l 535 526 l 535 391 l 157 391 l 137 230 q 164 247 205 262 q 247 277 303 277 q 346 277 388 267 q 431 258 471 231 z"}}}
